<svg width="60" height="60" viewBox="0 0 60 60" fill="none" xmlns="http://www.w3.org/2000/svg">
<path d="M59.4497 31.9712C59.4497 33.0758 58.5542 33.9712 57.4497 33.9712H35.9712C34.8667 33.9712 33.9712 34.8667 33.9712 35.9712V57.4497C33.9712 58.5542 33.0758 59.4497 31.9712 59.4497H27.4784C26.3739 59.4497 25.4784 58.5542 25.4784 57.4497V35.9712C25.4784 34.8667 24.583 33.9712 23.4784 33.9712H2C0.895429 33.9712 0 33.0758 0 31.9712V27.4784C0 26.3739 0.895431 25.4784 2 25.4784H23.4784C24.583 25.4784 25.4784 24.583 25.4784 23.4784V2C25.4784 0.895429 26.3739 0 27.4784 0H31.9712C33.0758 0 33.9712 0.895431 33.9712 2V23.4784C33.9712 24.583 34.8667 25.4784 35.9712 25.4784H57.4497C58.5542 25.4784 59.4497 26.3739 59.4497 27.4784V31.9712Z" fill="#1AD079"/>
</svg>
