<svg width="53" height="72" viewBox="0 0 53 72" fill="none" xmlns="http://www.w3.org/2000/svg">
<path d="M2.32813 0.953094C1.40625 1.26559 0.46875 2.35934 0.265625 3.35934C0.03125 4.45309 0.03125 67.5468 0.265625 68.6406C0.375 69.1718 0.625 69.6406 1.04688 70.1093C2.17188 71.4062 0.171876 71.3125 26.5 71.3125C52.8281 71.3125 50.8281 71.4062 51.9531 70.1093C52.375 69.6406 52.625 69.1718 52.7344 68.6406C53 67.4375 52.9688 12.4531 52.7031 11.9531C52.6094 11.7343 49.9688 9.12497 46.8438 6.12497L41.1875 0.687469L22.0781 0.703094C5.53125 0.703094 2.89063 0.749969 2.32813 0.953094ZM39.3125 7.04684C39.3125 9.28122 39.3906 11.0156 39.4844 11.3906C39.7188 12.2187 40.9063 13.4062 41.7344 13.6406C42.1094 13.75 43.9063 13.8125 46.3125 13.8125H50.25L50.2188 41.0156C50.1719 67.7343 50.1719 68.2187 49.875 68.4375C49.4063 68.7656 3.59375 68.7656 3.125 68.4375C2.82813 68.2187 2.82813 67.7031 2.82813 36C2.82813 4.29684 2.82813 3.78122 3.125 3.56247C3.39063 3.37497 6.125 3.34372 21.375 3.34372H39.3125V7.04684ZM48 11.0156C48.0469 11.0937 46.8125 11.1562 45.2656 11.1562C42.9219 11.1562 42.4219 11.1093 42.2188 10.9062C42.0156 10.7031 41.9688 10.2031 41.9688 7.92184V5.18747L44.9375 8.03122C46.5781 9.60934 47.9531 10.9531 48 11.0156Z" fill="black"/>
<path d="M7.98437 21.7656C6.98437 22.1719 6.90624 23.6719 7.84374 24.1094C8.12499 24.2344 10.9375 24.2812 17.4531 24.2812H26.6719L27.0469 23.8906C27.5312 23.4219 27.5625 22.5938 27.1406 22.0781L26.8437 21.7031L17.5625 21.6719C12.4687 21.6562 8.15624 21.7031 7.98437 21.7656Z" fill="#1AD079"/>
<path d="M7.7813 29.5468C7.43755 29.6874 7.0938 30.5312 7.20317 31.0156C7.42192 31.9999 6.12505 31.9374 27.0001 31.9374C45.8282 31.9374 46.0313 31.9374 46.3438 31.6249C46.5469 31.4218 46.6563 31.1093 46.6563 30.6874C46.6563 30.2656 46.5469 29.9531 46.3438 29.7499C46.0313 29.4374 45.8282 29.4374 27.0157 29.4531C16.5469 29.4531 7.89067 29.4999 7.7813 29.5468Z" fill="black"/>
<path d="M7.79688 37.2812C6.96876 37.6719 7.01563 39.1875 7.84376 39.5781C8.12501 39.7031 13.4063 39.75 27.0625 39.75H45.8906L46.2656 39.3594C46.75 38.8906 46.7813 38.0625 46.3594 37.5469L46.0625 37.1719L27.0938 37.1406C13.8125 37.125 8.03126 37.1562 7.79688 37.2812Z" fill="black"/>
<path d="M7.57812 45.2031C7.29688 45.4219 7.20312 45.6562 7.20312 46.1562C7.20312 46.6562 7.29688 46.8906 7.57812 47.1094C7.92188 47.3906 8.53125 47.4062 26.9219 47.4062C39 47.4062 46 47.3438 46.1875 47.25C46.8594 46.8906 46.8594 45.4219 46.1875 45.0625C46 44.9688 39 44.9062 26.9219 44.9062C8.53125 44.9062 7.92188 44.9219 7.57812 45.2031Z" fill="black"/>
<path d="M7.79687 52.75C7.03125 53.125 6.98437 54.3281 7.71875 54.9062C8.10937 55.2187 8.3125 55.2187 17.4844 55.1875L26.8438 55.1406L27.1406 54.7656C27.5625 54.25 27.5312 53.4218 27.0469 52.9531L26.6719 52.5625L17.4062 52.5781C11.25 52.5781 8.03125 52.6406 7.79687 52.75Z" fill="black"/>
</svg>
