<svg width="134" height="112" viewBox="0 0 134 112" fill="none" xmlns="http://www.w3.org/2000/svg">
<g filter="url(#filter0_d_270_905)">
<g clip-path="url(#clip0_270_905)">
<rect x="14.2119" y="35.0254" width="93" height="63" rx="8" transform="rotate(-14.8239 14.2119 35.0254)" fill="white"/>
<g clip-path="url(#clip1_270_905)">
<path d="M61.0389 45.7567L67.709 48.6973L72.311 37.6663M70.9235 56.5139C69.2741 56.9873 67.5477 57.1312 65.8428 56.9373C64.1378 56.7435 62.4877 56.2158 60.9867 55.3842C59.4857 54.5527 58.1632 53.4337 57.0946 52.091C56.0261 50.7484 55.2325 49.2084 54.7591 47.5591C54.2857 45.9097 54.1418 44.1833 54.3356 42.4784C54.5295 40.7734 55.0572 39.1233 55.8887 37.6223C56.7203 36.1213 57.8393 34.7988 59.1819 33.7302C60.5246 32.6617 62.0645 31.8681 63.7139 31.3947C67.0449 30.4386 70.6193 30.845 73.6507 32.5243C76.6821 34.2037 78.9222 37.0185 79.8783 40.3495C80.8343 43.6805 80.428 47.2549 78.7486 50.2863C77.0693 53.3177 74.2545 55.5578 70.9235 56.5139Z" stroke="#1AD079"/>
</g>
<path d="M34.2143 85.1181L34.8947 87.5643L33.7798 87.8744L31.9035 81.1285L33.9498 80.5594C34.7245 80.3439 35.3752 80.3572 35.902 80.5993C36.4289 80.8413 36.7834 81.29 36.9657 81.9455C37.148 82.6009 37.0745 83.1992 36.7452 83.7401C36.4159 84.2811 35.8717 84.6571 35.1128 84.8682L34.2143 85.1181ZM33.2748 81.7405L33.9605 84.2055L34.6849 84.004C35.1647 83.8706 35.4991 83.6576 35.6881 83.3652C35.8771 83.0727 35.9153 82.7242 35.8028 82.3196C35.5821 81.5262 35.0107 81.2577 34.0887 81.5141L33.2748 81.7405ZM42.7084 85.3911L41.65 85.6855L41.4406 84.9328L41.4218 84.938C41.2499 85.6075 40.8424 86.0317 40.1995 86.2105C39.726 86.3422 39.3186 86.317 38.9773 86.1349C38.6392 85.9518 38.4113 85.6486 38.2935 85.2253C38.0406 84.3158 38.4169 83.6401 39.4225 83.1982L40.7963 82.5982C40.6053 81.9114 40.1836 81.6587 39.5313 81.8401C38.9574 81.9997 38.4949 82.3412 38.1438 82.8646L37.8782 81.9096C38.3025 81.4673 38.8471 81.1536 39.5119 80.9687C40.7288 80.6302 41.5038 81.06 41.837 82.258L42.7084 85.3911ZM40.9965 83.3179L40.0244 83.7404C39.7221 83.8684 39.5067 84.011 39.3781 84.1684C39.2519 84.3218 39.2275 84.5381 39.3052 84.8172C39.3619 85.021 39.4807 85.1688 39.6616 85.2603C39.8447 85.3479 40.0586 85.3577 40.3032 85.2897C40.6357 85.1972 40.8778 85.0048 41.0297 84.7126C41.1838 84.4163 41.2115 84.091 41.113 83.7366L40.9965 83.3179ZM46.8773 79.0418L46.2583 85.2349C46.0841 86.3578 45.5893 87.0327 44.7739 87.2595C44.5449 87.3231 44.3479 87.356 44.1829 87.3579L43.9304 86.45C44.1186 86.4585 44.2833 86.4431 44.4244 86.4038C44.8321 86.2904 45.0805 86.0051 45.1695 85.5479L45.2743 84.6673L42.0225 80.3921L43.2315 80.0558L45.3528 83.2365C45.3775 83.2769 45.438 83.3851 45.5343 83.5611L45.5578 83.5545C45.5534 83.478 45.5502 83.3573 45.5483 83.1923L45.7765 79.3479L46.8773 79.0418ZM56.1484 81.6529L55.0571 81.9565L54.327 79.3315C54.1865 78.8266 54.0128 78.4813 53.8057 78.2956C53.6018 78.1091 53.3305 78.0629 52.9917 78.1571C52.7064 78.2365 52.503 78.4468 52.3817 78.788C52.2635 79.1283 52.2597 79.4977 52.3705 79.8959L53.0954 82.5021L51.9993 82.807L51.2443 80.0926C50.9949 79.1957 50.5534 78.8353 49.9199 79.0115C49.6251 79.0935 49.4195 79.2959 49.3032 79.6189C49.1901 79.9409 49.1933 80.3168 49.3128 80.7464L50.0376 83.3526L48.9462 83.6561L47.6064 78.839L48.6978 78.5354L48.9098 79.2975L48.9286 79.2923C49.1145 78.6121 49.5398 78.1796 50.2047 77.9947C50.5371 77.9022 50.853 77.914 51.1522 78.0302C51.4537 78.1423 51.6913 78.3347 51.8651 78.6073C52.0377 77.843 52.4784 77.3623 53.1872 77.1651C54.2472 76.8703 54.9591 77.3768 55.3228 78.6846L56.1484 81.6529ZM60.9708 78.0361L57.6873 78.9493C57.8237 79.3912 58.0556 79.6966 58.3831 79.8657C58.7137 80.0339 59.1079 80.0544 59.5658 79.927C60.0801 79.784 60.5094 79.499 60.8536 79.0722L61.0982 79.9519C60.7359 80.35 60.1941 80.6493 59.4728 80.85C58.764 81.0471 58.1467 80.984 57.6209 80.6606C57.0974 80.3331 56.7253 79.7727 56.5046 78.9793C56.2961 78.2297 56.3476 77.5582 56.6589 76.9648C56.9725 76.3674 57.4586 75.9771 58.1172 75.7939C58.7758 75.6107 59.3443 75.6807 59.8227 76.0038C60.3012 76.3268 60.645 76.8647 60.8544 77.6174L60.9708 78.0361ZM59.7025 77.5577C59.5903 77.1665 59.4132 76.888 59.1711 76.7222C58.9282 76.5533 58.6467 76.5133 58.3269 76.6023C58.0132 76.6895 57.7785 76.8781 57.6227 77.1681C57.4699 77.4572 57.4199 77.7938 57.4727 78.1778L59.7025 77.5577ZM66.8882 78.6658L65.7968 78.9694L65.0419 76.255C64.7915 75.355 64.3481 74.9935 63.7114 75.1705C63.379 75.263 63.1395 75.4648 62.9928 75.7758C62.8454 76.0838 62.8244 76.4275 62.9299 76.807L63.694 79.5543L62.598 79.8591L61.2581 75.042L62.3542 74.7371L62.5767 75.5368L62.5955 75.5316C62.7869 74.8229 63.2229 74.3739 63.9035 74.1846C64.4272 74.0389 64.8746 74.0986 65.2457 74.3637C65.6158 74.6256 65.8903 75.0781 66.0692 75.721L66.8882 78.6658ZM70.7501 77.536C70.5665 77.7019 70.3007 77.8333 69.9526 77.9301C69.018 78.19 68.426 77.8715 68.1765 76.9746L67.4189 74.2508L66.6145 74.4746L66.3764 73.6184L67.1808 73.3947L66.8707 72.2798L67.8757 71.6657L68.2722 73.0911L69.4247 72.7706L69.6628 73.6267L68.5103 73.9473L69.1802 76.3559C69.2596 76.6413 69.368 76.8307 69.5055 76.9242C69.6431 77.0178 69.8326 77.0309 70.074 76.9638C70.2591 76.9123 70.4042 76.8145 70.5094 76.6704L70.7501 77.536ZM78.0561 75.5597L76.9976 75.8541L76.7883 75.1014L76.7695 75.1066C76.5976 75.7761 76.1901 76.2003 75.5472 76.3791C75.0737 76.5108 74.6663 76.4856 74.325 76.3035C73.9869 76.1204 73.759 75.8172 73.6412 75.3939C73.3883 74.4844 73.7646 73.8087 74.7702 73.3668L76.144 72.7668C75.953 72.08 75.5313 71.8273 74.879 72.0087C74.3051 72.1683 73.8426 72.5098 73.4915 73.0332L73.2259 72.0782C73.6502 71.6359 74.1948 71.3222 74.8596 71.1373C76.0765 70.7988 76.8515 71.2286 77.1847 72.4266L78.0561 75.5597ZM76.3442 73.4865L75.3721 73.909C75.0698 74.037 74.8544 74.1796 74.7258 74.337C74.5996 74.4904 74.5752 74.7067 74.6529 74.9858C74.7096 75.1896 74.8284 75.3374 75.0093 75.4289C75.1924 75.5165 75.4063 75.5263 75.6509 75.4583C75.9834 75.3658 76.2255 75.1734 76.3774 74.8812C76.5315 74.5849 76.5592 74.2596 76.4607 73.9052L76.3442 73.4865ZM82.7788 74.0079C82.455 74.3379 82.0297 74.5761 81.5028 74.7227C80.7877 74.9215 80.1488 74.8594 79.5858 74.5362C79.022 74.2098 78.6411 73.6907 78.4431 72.9788C78.2224 72.1853 78.2806 71.4833 78.6175 70.8726C78.9568 70.2579 79.5215 69.8407 80.3119 69.6208C80.7509 69.4987 81.1596 69.4678 81.5379 69.5282L81.8205 70.5443C81.4152 70.3867 81.0228 70.3607 80.6433 70.4663C80.1823 70.5945 79.848 70.8564 79.6404 71.252C79.432 71.6445 79.398 72.0932 79.5384 72.5981C79.6771 73.0968 79.9246 73.452 80.2808 73.6637C80.6402 73.8746 81.0535 73.9151 81.5208 73.7851C81.9128 73.6761 82.244 73.4336 82.5145 73.0577L82.7788 74.0079ZM87.3137 72.7466C86.9899 73.0766 86.5646 73.3148 86.0377 73.4614C85.3226 73.6602 84.6836 73.5981 84.1207 73.2749C83.5569 72.9485 83.176 72.4294 82.978 71.7175C82.7573 70.924 82.8155 70.2219 83.1524 69.6113C83.4917 68.9966 84.0564 68.5793 84.8468 68.3595C85.2858 68.2374 85.6945 68.2065 86.0728 68.2669L86.3554 69.283C85.9501 69.1254 85.5577 69.0994 85.1782 69.205C84.7172 69.3332 84.3829 69.5951 84.1753 69.9907C83.9669 70.3832 83.9329 70.8319 84.0733 71.3368C84.212 71.8355 84.4594 72.1907 84.8157 72.4024C85.175 72.6133 85.5884 72.6538 86.0557 72.5238C86.4477 72.4148 86.7789 72.1723 87.0494 71.7964L87.3137 72.7466ZM91.953 69.4189L88.6694 70.3321C88.8058 70.774 89.0378 71.0795 89.3652 71.2485C89.6958 71.4168 90.0901 71.4372 90.548 71.3098C91.0623 71.1668 91.4916 70.8818 91.8357 70.455L92.0804 71.3347C91.7181 71.7328 91.1763 72.0321 90.455 72.2328C89.7462 72.4299 89.1289 72.3668 88.6031 72.0434C88.0795 71.7159 87.7074 71.1555 87.4867 70.3621C87.2783 69.6125 87.3297 68.941 87.6411 68.3476C87.9547 67.7502 88.4408 67.3599 89.0994 67.1767C89.758 66.9935 90.3265 67.0635 90.8049 67.3866C91.2833 67.7096 91.6272 68.2475 91.8365 69.0002L91.953 69.4189ZM90.6847 68.9405C90.5725 68.5493 90.3954 68.2708 90.1533 68.105C89.9103 67.9361 89.6289 67.8961 89.309 67.9851C88.9954 68.0723 88.7607 68.2609 88.6048 68.5509C88.4521 68.84 88.4021 69.1766 88.4549 69.5606L90.6847 68.9405ZM94.4927 70.2228L94.4739 70.228L95.2878 73.1541L94.1964 73.4576L92.2403 66.4248L93.3317 66.1212L93.5672 66.968L93.586 66.9627C93.7813 66.2192 94.238 65.7475 94.9562 65.5478C95.5677 65.3777 96.1042 65.4599 96.5655 65.7945C97.0269 66.1291 97.3583 66.6586 97.5598 67.383C97.7831 68.1859 97.769 68.8824 97.5176 69.4727C97.2662 70.063 96.8065 70.451 96.1385 70.6368C95.5238 70.8077 94.9752 70.6697 94.4927 70.2228ZM93.9359 68.3301L94.1021 68.9276C94.1998 69.2788 94.394 69.5458 94.6847 69.7285C94.9785 69.9103 95.2979 69.9532 95.6429 69.8573C96.0475 69.7448 96.3206 69.4998 96.4623 69.1226C96.6063 68.7412 96.5998 68.2683 96.4428 67.7038C96.3111 67.2303 96.0999 66.8903 95.8094 66.6839C95.5211 66.4735 95.1935 66.4193 94.8266 66.5214C94.4377 66.6296 94.1625 66.8548 94.0009 67.1971C93.8424 67.5385 93.8208 67.9162 93.9359 68.3301ZM101.911 68.869C101.727 69.035 101.462 69.1664 101.113 69.2632C100.179 69.5231 99.5869 69.2046 99.3374 68.3077L98.5798 65.5839L97.7754 65.8077L97.5373 64.9515L98.3417 64.7278L98.0316 63.6129L99.0366 62.9988L99.4331 64.4242L100.586 64.1036L100.824 64.9598L99.6712 65.2804L100.341 67.689C100.421 67.9743 100.529 68.1638 100.666 68.2573C100.804 68.3509 100.993 68.364 101.235 68.2969C101.42 68.2454 101.565 68.1476 101.67 68.0035L101.911 68.869ZM106.301 65.4282L103.017 66.3415C103.154 66.7833 103.386 67.0888 103.713 67.2579C104.044 67.4261 104.438 67.4465 104.896 67.3192C105.41 67.1761 105.839 66.8912 106.184 66.4643L106.428 67.344C106.066 67.7421 105.524 68.0415 104.803 68.2421C104.094 68.4392 103.477 68.3761 102.951 68.0527C102.427 67.7253 102.055 67.1649 101.835 66.3714C101.626 65.6219 101.678 64.9504 101.989 64.357C102.303 63.7596 102.789 63.3693 103.447 63.1861C104.106 63.0029 104.674 63.0728 105.153 63.3959C105.631 63.719 105.975 64.2569 106.184 65.0095L106.301 65.4282ZM105.033 64.9498C104.92 64.5587 104.743 64.2802 104.501 64.1144C104.258 63.9454 103.977 63.9055 103.657 63.9944C103.343 64.0817 103.109 64.2703 102.953 64.5603C102.8 64.8494 102.75 65.186 102.803 65.57L105.033 64.9498ZM112.308 66.0331L111.216 66.3367L110.989 65.5181L110.97 65.5234C110.791 66.242 110.337 66.703 109.606 66.9062C109.013 67.0711 108.478 66.9884 108.001 66.6582C107.527 66.324 107.186 65.7852 106.979 65.0419C106.758 64.2454 106.776 63.5526 107.035 62.9638C107.296 62.374 107.755 61.988 108.41 61.8057C109.06 61.6251 109.604 61.7542 110.043 62.1928L110.062 62.1875L109.233 59.205L110.324 58.9015L112.308 66.0331ZM110.618 64.1312L110.443 63.5008C110.348 63.159 110.156 62.8998 109.867 62.7234C109.578 62.547 109.261 62.5068 108.916 62.6027C108.508 62.7161 108.229 62.9576 108.078 63.3273C107.931 63.696 107.932 64.1501 108.082 64.6895C108.218 65.1788 108.437 65.5351 108.739 65.7586C109.044 65.978 109.386 66.035 109.765 65.9294C110.138 65.8256 110.403 65.605 110.559 65.2676C110.714 64.9271 110.734 64.5483 110.618 64.1312Z" fill="black"/>
</g>
</g>
<defs>
<filter id="filter0_d_270_905" x="-0.788086" y="-1.76855" width="136.023" height="114.697" filterUnits="userSpaceOnUse" color-interpolation-filters="sRGB">
<feFlood flood-opacity="0" result="BackgroundImageFix"/>
<feColorMatrix in="SourceAlpha" type="matrix" values="0 0 0 0 0 0 0 0 0 0 0 0 0 0 0 0 0 0 127 0" result="hardAlpha"/>
<feOffset dy="2"/>
<feGaussianBlur stdDeviation="7.5"/>
<feComposite in2="hardAlpha" operator="out"/>
<feColorMatrix type="matrix" values="0 0 0 0 0 0 0 0 0 0 0 0 0 0 0 0 0 0 0.1 0"/>
<feBlend mode="normal" in2="BackgroundImageFix" result="effect1_dropShadow_270_905"/>
<feBlend mode="normal" in="SourceGraphic" in2="effect1_dropShadow_270_905" result="shape"/>
</filter>
<clipPath id="clip0_270_905">
<rect x="14.2119" y="35.0254" width="93" height="63" rx="8" transform="rotate(-14.8239 14.2119 35.0254)" fill="white"/>
</clipPath>
<clipPath id="clip1_270_905">
<rect width="28" height="28" fill="white" transform="translate(49.9995 34.3599) rotate(-16.0144)"/>
</clipPath>
</defs>
</svg>
