<svg width="78" height="21" viewBox="0 0 78 21" fill="none" xmlns="http://www.w3.org/2000/svg">
<rect x="0.772217" width="77" height="17" rx="3.00928" transform="rotate(2.60375 0.772217 0)" fill="white"/>
<path d="M15.0459 10.4766L16.2522 11.7975L15.8157 12.196L14.6097 10.8748C14.1225 11.2303 13.5284 11.4087 12.926 11.3804C11.4601 11.3138 10.3245 10.07 10.3912 8.60413C10.4579 7.13828 11.7016 6.00271 13.1675 6.06937C14.6333 6.13603 15.7689 7.3798 15.7022 8.84565C15.6757 9.4482 15.4441 10.0236 15.0459 10.4766ZM14.464 10.2307C14.856 9.86267 15.0885 9.35599 15.1121 8.81882C15.164 7.67783 14.2816 6.71137 13.1406 6.65948C11.9997 6.6076 11.0332 7.48998 10.9813 8.63097C10.9294 9.77195 11.8118 10.7384 12.9528 10.7903C13.4899 10.8156 14.0156 10.6299 14.4177 10.273L14.464 10.2307Z" fill="#D9D9D9"/>
<path d="M19.675 11.6725L19.7057 10.9965C19.78 11.0683 19.8694 11.1339 19.9739 11.1934C20.0807 11.253 20.1924 11.3049 20.309 11.3489C20.4279 11.3909 20.5473 11.4248 20.667 11.4508C20.7867 11.4767 20.8978 11.4921 21.0002 11.4967C21.3531 11.5128 21.6189 11.4598 21.7978 11.338C21.9791 11.2139 22.0753 11.029 22.0865 10.7831C22.0925 10.6511 22.0681 10.5348 22.0134 10.4342C21.961 10.3338 21.8853 10.2414 21.7865 10.157C21.6878 10.0704 21.5695 9.98749 21.4317 9.90823C21.2963 9.8268 21.1496 9.74144 20.9917 9.65214C20.8249 9.55788 20.6696 9.46299 20.5257 9.36749C20.3817 9.27199 20.2576 9.16826 20.1532 9.0563C20.0488 8.94435 19.9678 8.81977 19.9101 8.68257C19.8549 8.5432 19.8314 8.38246 19.8397 8.20036C19.8498 7.97728 19.9076 7.78602 20.0129 7.62658C20.1184 7.46486 20.2532 7.33413 20.4174 7.23439C20.5816 7.13465 20.7662 7.06321 20.9711 7.02007C21.1784 6.97703 21.3879 6.96033 21.5996 6.96995C22.0821 6.9919 22.4312 7.06594 22.6467 7.19207L22.6174 7.8374C22.3374 7.62394 21.9709 7.50691 21.5179 7.48631C21.3927 7.48061 21.2669 7.48858 21.1405 7.5102C21.0141 7.52955 20.9007 7.56659 20.8001 7.62132C20.6995 7.67605 20.6164 7.74868 20.5507 7.83922C20.485 7.92975 20.4491 8.04217 20.443 8.17647C20.4373 8.30166 20.4551 8.41082 20.4965 8.50395C20.5402 8.59717 20.6058 8.68341 20.6935 8.76267C20.7811 8.84193 20.8882 8.91979 21.0147 8.99626C21.1435 9.07283 21.2914 9.1571 21.4583 9.24909C21.6296 9.34356 21.7916 9.44217 21.9444 9.54492C22.0971 9.64766 22.23 9.75977 22.3431 9.88125C22.4562 10.0027 22.5436 10.1356 22.6055 10.2798C22.6697 10.4241 22.6976 10.5874 22.6893 10.7695C22.6783 11.0108 22.6212 11.2135 22.518 11.3776C22.4171 11.5395 22.2834 11.6691 22.1171 11.7665C21.953 11.8639 21.7652 11.9307 21.5537 11.9667C21.3421 12.005 21.1202 12.0188 20.888 12.0083C20.8106 12.0047 20.7153 11.9936 20.6021 11.9747C20.4888 11.9582 20.3736 11.9347 20.2563 11.9043C20.139 11.8761 20.0276 11.8425 19.9222 11.8035C19.8191 11.7623 19.7367 11.7187 19.675 11.6725ZM26.4177 10.5661L23.9491 10.4538C23.9405 10.8435 24.0315 11.1487 24.2222 11.3695C24.4129 11.5903 24.6835 11.7087 25.0341 11.7246C25.4279 11.7425 25.7957 11.6293 26.1376 11.3848L26.1137 11.9106C25.7962 12.1197 25.3848 12.2128 24.8795 12.1898C24.3855 12.1673 24.0046 11.9915 23.7367 11.6622C23.469 11.3307 23.3482 10.877 23.3744 10.3011C23.3991 9.75706 23.5729 9.3213 23.8957 8.99383C24.2209 8.66419 24.6123 8.50977 25.0698 8.53058C25.5274 8.55139 25.8746 8.71544 26.1115 9.02275C26.3485 9.33005 26.455 9.74662 26.4311 10.2724L26.4177 10.5661ZM25.8657 10.0654C25.8781 9.74205 25.811 9.48695 25.6644 9.30008C25.5201 9.11332 25.3113 9.01373 25.0382 9.00131C24.7741 8.9893 24.5456 9.07357 24.3526 9.25412C24.1597 9.43466 24.0346 9.67647 23.9775 9.97952L25.8657 10.0654ZM29.6976 12.3268L29.1376 12.3013L29.1624 11.755L29.1488 11.7544C28.8862 12.1621 28.5181 12.3552 28.0447 12.3337C27.6964 12.3179 27.4274 12.2133 27.2378 12.0199C27.0504 11.8266 26.9637 11.5774 26.9775 11.2724C27.0072 10.6191 27.4092 10.2565 28.1835 10.1845L29.2384 10.0853C29.2654 9.49121 29.0388 9.18324 28.5585 9.16139C28.1373 9.14224 27.7507 9.26836 27.3985 9.53975L27.4246 8.96613C27.7782 8.76323 28.1793 8.67198 28.6277 8.69237C29.4494 8.72974 29.8405 9.1832 29.801 10.0527L29.6976 12.3268ZM29.218 10.5326L28.3694 10.6104C28.1082 10.635 27.9095 10.6909 27.7733 10.7783C27.6371 10.8633 27.5637 11.0231 27.553 11.2575C27.5453 11.4283 27.5992 11.571 27.7149 11.6857C27.8329 11.7983 27.9933 11.8592 28.1958 11.8684C28.4736 11.881 28.7067 11.7947 28.8954 11.6094C29.0864 11.4219 29.1886 11.1791 29.2022 10.8809L29.218 10.5326ZM32.7092 9.52807C32.6147 9.4485 32.4753 9.40452 32.2909 9.39614C32.0519 9.38527 31.8465 9.48883 31.6746 9.70684C31.505 9.92494 31.4114 10.2286 31.3937 10.6179L31.3126 12.4002L30.7526 12.3747L30.9116 8.87835L31.4716 8.90382L31.4388 9.62427L31.4525 9.62489C31.5433 9.38267 31.6738 9.197 31.8439 9.06787C32.0141 8.93647 32.2005 8.87538 32.4031 8.88459C32.5488 8.89122 32.6596 8.91222 32.7356 8.94761L32.7092 9.52807ZM35.5743 12.4332C35.2983 12.5826 34.976 12.6489 34.6072 12.6321C34.1087 12.6095 33.7132 12.4295 33.4206 12.0923C33.1303 11.7529 32.997 11.3249 33.0205 10.8082C33.0467 10.2323 33.2327 9.77769 33.5786 9.44443C33.9246 9.10889 34.3731 8.95365 34.9239 8.9787C35.2312 8.99267 35.4995 9.0619 35.7288 9.18637L35.7027 9.76C35.4515 9.5661 35.1779 9.46242 34.882 9.44896C34.5246 9.43271 34.2251 9.54796 33.9835 9.79473C33.7443 10.0393 33.6152 10.3699 33.5963 10.7865C33.5776 11.1962 33.6699 11.5243 33.8731 11.7708C34.0786 12.0173 34.3623 12.1488 34.7243 12.1653C35.0293 12.1792 35.3207 12.0909 35.5985 11.9005L35.5743 12.4332ZM39.3161 12.7642L38.7561 12.7387L38.8477 10.7242C38.8808 9.99577 38.6265 9.61924 38.0847 9.5946C37.8116 9.58218 37.5769 9.67757 37.3806 9.88078C37.1844 10.0817 37.0788 10.3472 37.0638 10.6773L36.9737 12.6576L36.4138 12.6322L36.6492 7.45589L37.2091 7.48136L37.1063 9.74172L37.12 9.74234C37.4087 9.31295 37.8011 9.10954 38.2974 9.13211C39.085 9.16792 39.4572 9.66044 39.414 10.6097L39.3161 12.7642ZM44.7962 13.0134L44.2363 12.9879L44.2611 12.4416L44.2474 12.441C43.9848 12.8487 43.6168 13.0419 43.1433 13.0203C42.7951 13.0045 42.5261 12.8999 42.3364 12.7065C42.1491 12.5132 42.0623 12.2641 42.0762 11.959C42.1059 11.3057 42.5079 10.9431 43.2821 10.8711L44.337 10.7719C44.364 10.1778 44.1374 9.86985 43.6571 9.84801C43.236 9.82886 42.8493 9.95498 42.4971 10.2264L42.5232 9.65274C42.8769 9.44985 43.2779 9.3586 43.7263 9.37899C44.5481 9.41636 44.9392 9.86982 44.8996 10.7394L44.7962 13.0134ZM44.3167 11.2192L43.468 11.297C43.2069 11.3216 43.0082 11.3776 42.8719 11.4649C42.7357 11.5499 42.6623 11.7097 42.6517 11.9441C42.6439 12.1149 42.6979 12.2576 42.8135 12.3724C42.9316 12.4849 43.0919 12.5458 43.2945 12.555C43.5722 12.5677 43.8054 12.4813 43.994 12.296C44.185 12.1085 44.2873 11.8657 44.3009 11.5675L44.3167 11.2192ZM46.4113 13.0868L45.8513 13.0614L46.0867 7.88506L46.6467 7.91053L46.4113 13.0868ZM48.1048 13.1638L47.5449 13.1384L47.7802 7.96208L48.3402 7.98754L48.1048 13.1638ZM51.7173 13.3281L51.1573 13.3026L51.3927 8.12636L51.9527 8.15182L51.7173 13.3281ZM55.7341 11.8993L53.2655 11.787C53.2569 12.1767 53.3479 12.4819 53.5386 12.7027C53.7293 12.9235 53.9999 13.0419 54.3505 13.0578C54.7443 13.0757 55.1121 12.9624 55.454 12.7179L55.43 13.2438C55.1126 13.4529 54.7012 13.5459 54.1959 13.5229C53.7019 13.5005 53.321 13.3246 53.0531 12.9954C52.7854 12.6639 52.6646 12.2102 52.6908 11.6343C52.7155 11.0902 52.8893 10.6545 53.2121 10.327C53.5373 9.99736 53.9287 9.84294 54.3862 9.86375C54.8438 9.88456 55.191 10.0486 55.4279 10.3559C55.6649 10.6632 55.7714 11.0798 55.7475 11.6056L55.7341 11.8993ZM55.1821 11.3986C55.1945 11.0752 55.1274 10.8201 54.9808 10.6333C54.8365 10.4465 54.6277 10.3469 54.3546 10.3345C54.0905 10.3225 53.862 10.4067 53.669 10.5873C53.476 10.7678 53.351 11.0096 53.2939 11.3127L55.1821 11.3986ZM59.014 13.6599L58.454 13.6345L58.4788 13.0882L58.4652 13.0875C58.2026 13.4953 57.8345 13.6884 57.3611 13.6669C57.0128 13.651 56.7438 13.5464 56.5542 13.353C56.3668 13.1598 56.28 12.9106 56.2939 12.6056C56.3236 11.9523 56.7256 11.5896 57.4999 11.5176L58.5548 11.4185C58.5818 10.8244 58.3551 10.5164 57.8748 10.4946C57.4537 10.4754 57.0671 10.6015 56.7149 10.8729L56.7409 10.2993C57.0946 10.0964 57.4956 10.0052 57.9441 10.0255C58.7658 10.0629 59.1569 10.5164 59.1174 11.3859L59.014 13.6599ZM58.5344 11.8658L57.6858 11.9435C57.4246 11.9681 57.2259 12.0241 57.0896 12.1114C56.9535 12.1965 56.8801 12.3562 56.8694 12.5907C56.8616 12.7614 56.9156 12.9042 57.0313 13.0189C57.1493 13.1315 57.3096 13.1924 57.5122 13.2016C57.7899 13.2142 58.0231 13.1279 58.2117 12.9426C58.4027 12.7551 58.505 12.5123 58.5186 12.2141L58.5344 11.8658ZM63.0532 13.8436L62.4933 13.8182L62.5203 13.224L62.5066 13.2234C62.2266 13.6623 61.8158 13.8695 61.274 13.8448C60.8347 13.8248 60.4901 13.6529 60.2402 13.3291C59.9927 13.003 59.8812 12.5703 59.9058 12.0308C59.9321 11.4526 60.0988 10.996 60.406 10.661C60.7132 10.326 61.1093 10.1695 61.5941 10.1915C62.0744 10.2134 62.4152 10.4182 62.6166 10.806L62.6302 10.8066L62.7287 8.64186L63.2886 8.66733L63.0532 13.8436ZM62.5652 12.2373L62.5886 11.7217C62.6014 11.4394 62.519 11.1962 62.3412 10.9919C62.1635 10.7877 61.9312 10.679 61.6444 10.666C61.3029 10.6505 61.0286 10.7634 60.8215 11.0049C60.6143 11.2464 60.5007 11.588 60.4806 12.0296C60.4623 12.4325 60.5412 12.7554 60.7172 12.9983C60.8955 13.2391 61.1429 13.3667 61.4593 13.3811C61.7712 13.3953 62.029 13.2941 62.2327 13.0775C62.4387 12.8611 62.5495 12.581 62.5652 12.2373ZM63.9809 13.7592L64.0082 13.1583C64.303 13.3975 64.6336 13.5254 65.0001 13.5421C65.4918 13.5645 65.7451 13.4117 65.76 13.084C65.7642 12.9906 65.7462 12.9111 65.7058 12.8454C65.6678 12.7775 65.6136 12.7169 65.543 12.6635C65.4747 12.6102 65.3925 12.562 65.2964 12.5189C65.2027 12.4735 65.101 12.4267 64.9914 12.3784C64.8394 12.3099 64.7057 12.2422 64.5901 12.1754C64.4769 12.1064 64.3822 12.0314 64.3061 11.9503C64.2323 11.8671 64.1772 11.7745 64.1408 11.6725C64.1066 11.5706 64.0926 11.4525 64.0987 11.3182C64.1062 11.1543 64.1503 11.0115 64.2311 10.8897C64.312 10.7656 64.417 10.6643 64.546 10.5858C64.6752 10.505 64.8204 10.4466 64.9817 10.4106C65.1453 10.3747 65.3124 10.3606 65.4832 10.3684C65.7859 10.3822 66.0544 10.4468 66.2886 10.5624L66.2629 11.1292C66.0133 10.9491 65.7212 10.8514 65.3866 10.8362C65.2819 10.8314 65.1869 10.8396 65.1015 10.8608C65.0162 10.8798 64.9419 10.9095 64.8785 10.9499C64.8173 10.9905 64.7683 11.0407 64.7313 11.1006C64.6968 11.1583 64.6778 11.2236 64.6745 11.2965C64.6704 11.3875 64.6829 11.4645 64.7119 11.5274C64.7433 11.5904 64.7897 11.6473 64.8513 11.698C64.9129 11.7487 64.9883 11.7955 65.0776 11.8383C65.1669 11.8811 65.2685 11.928 65.3825 11.9788C65.5346 12.045 65.6707 12.1128 65.7907 12.1821C65.9109 12.2491 66.0124 12.3245 66.0952 12.4081C66.1782 12.4894 66.2401 12.5823 66.281 12.6868C66.3241 12.7914 66.3425 12.9143 66.3361 13.0554C66.3282 13.2284 66.2827 13.3769 66.1995 13.5008C66.1186 13.6249 66.0125 13.7261 65.8812 13.8046C65.7499 13.883 65.6002 13.9389 65.4322 13.9723C65.2641 14.0057 65.0891 14.0183 64.907 14.01C64.5473 13.9937 64.2386 13.9101 63.9809 13.7592Z" fill="#D9D9D9"/>
</svg>
