<svg width="382" height="319" viewBox="0 0 382 319" fill="none" xmlns="http://www.w3.org/2000/svg">
<rect width="382" height="289" rx="11.0953" fill="white"/>
<rect width="356" height="269" transform="translate(13 10)" fill="#F1F5F9"/>
<path d="M73.793 100.297C72.5273 100.953 70.9531 101.281 69.0703 101.281C66.6328 101.281 64.6797 100.512 63.2109 98.9727C61.7422 97.4336 61.0078 95.4141 61.0078 92.9141C61.0078 90.2266 61.832 88.0547 63.4805 86.3984C65.1367 84.7422 67.2266 83.9141 69.75 83.9141C71.375 83.9141 72.7227 84.1445 73.793 84.6055V87.3711C72.6602 86.6992 71.4102 86.3633 70.043 86.3633C68.2227 86.3633 66.7461 86.9453 65.6133 88.1094C64.4883 89.2734 63.9258 90.8281 63.9258 92.7734C63.9258 94.625 64.4531 96.1016 65.5078 97.2031C66.5625 98.2969 67.9492 98.8438 69.668 98.8438C71.2539 98.8438 72.6289 98.4688 73.793 97.7188V100.297ZM87.3398 101H84.6211V94.4375C84.6211 92.0625 83.8281 90.875 82.2422 90.875C81.4453 90.875 80.7734 91.2188 80.2266 91.9062C79.6797 92.5938 79.4062 93.4727 79.4062 94.543V101H76.6758V83.2344H79.4062V90.9922H79.4531C80.3594 89.4766 81.6562 88.7188 83.3438 88.7188C86.0078 88.7188 87.3398 90.3477 87.3398 93.6055V101ZM100.805 95.7383H92.625C92.6562 96.8477 92.9961 97.7031 93.6445 98.3047C94.3008 98.9062 95.1992 99.207 96.3398 99.207C97.6211 99.207 98.7969 98.8242 99.8672 98.0586V100.25C98.7734 100.938 97.3281 101.281 95.5312 101.281C93.7656 101.281 92.3789 100.738 91.3711 99.6523C90.3711 98.5586 89.8711 97.0234 89.8711 95.0469C89.8711 93.1797 90.4219 91.6602 91.5234 90.4883C92.6328 89.3086 94.0078 88.7188 95.6484 88.7188C97.2891 88.7188 98.5586 89.2461 99.457 90.3008C100.355 91.3555 100.805 92.8203 100.805 94.6953V95.7383ZM98.1797 93.8164C98.1719 92.8398 97.9414 92.082 97.4883 91.543C97.0352 90.9961 96.4102 90.7227 95.6133 90.7227C94.832 90.7227 94.168 91.0078 93.6211 91.5781C93.082 92.1484 92.75 92.8945 92.625 93.8164H98.1797ZM111.984 100.449C111.023 101.004 109.887 101.281 108.574 101.281C106.793 101.281 105.355 100.727 104.262 99.6172C103.168 98.5 102.621 97.0547 102.621 95.2812C102.621 93.3047 103.207 91.7188 104.379 90.5234C105.559 89.3203 107.133 88.7188 109.102 88.7188C110.195 88.7188 111.16 88.9102 111.996 89.293V91.8242C111.16 91.1992 110.27 90.8867 109.324 90.8867C108.176 90.8867 107.234 91.2773 106.5 92.0586C105.766 92.832 105.398 93.8477 105.398 95.1055C105.398 96.3477 105.742 97.3281 106.43 98.0469C107.125 98.7656 108.055 99.125 109.219 99.125C110.195 99.125 111.117 98.7773 111.984 98.082V100.449ZM125.578 101H122.133L117.469 95.2344H117.422V101H114.691V83.2344H117.422V94.4961H117.469L121.875 89H125.145L120.188 94.7891L125.578 101ZM139.23 101.281C137.379 101.281 135.898 100.723 134.789 99.6055C133.688 98.4805 133.137 96.9922 133.137 95.1406C133.137 93.125 133.711 91.5508 134.859 90.418C136.016 89.2852 137.57 88.7188 139.523 88.7188C141.398 88.7188 142.859 89.2695 143.906 90.3711C144.953 91.4727 145.477 93 145.477 94.9531C145.477 96.8672 144.91 98.4023 143.777 99.5586C142.652 100.707 141.137 101.281 139.23 101.281ZM139.359 90.8867C138.297 90.8867 137.457 91.2578 136.84 92C136.223 92.7422 135.914 93.7656 135.914 95.0703C135.914 96.3281 136.227 97.3203 136.852 98.0469C137.477 98.7656 138.312 99.125 139.359 99.125C140.43 99.125 141.25 98.7695 141.82 98.0586C142.398 97.3477 142.688 96.3359 142.688 95.0234C142.688 93.7031 142.398 92.6836 141.82 91.9648C141.25 91.2461 140.43 90.8867 139.359 90.8867ZM158.719 101H156V99.1016H155.953C155.164 100.555 153.938 101.281 152.273 101.281C149.438 101.281 148.02 99.5781 148.02 96.1719V89H150.738V95.8906C150.738 98.0469 151.57 99.125 153.234 99.125C154.039 99.125 154.699 98.8281 155.215 98.2344C155.738 97.6406 156 96.8633 156 95.9023V89H158.719V101ZM168.598 100.871C168.066 101.137 167.367 101.27 166.5 101.27C164.172 101.27 163.008 100.152 163.008 97.918V91.1328H161.004V89H163.008V86.2227L165.727 85.4492V89H168.598V91.1328H165.727V97.1328C165.727 97.8438 165.855 98.3516 166.113 98.6562C166.371 98.9609 166.801 99.1133 167.402 99.1133C167.863 99.1133 168.262 98.9805 168.598 98.7148V100.871Z" fill="black"/>
<path d="M27.2929 90.2929C26.9024 90.6834 26.9024 91.3166 27.2929 91.7071L33.6569 98.0711C34.0474 98.4616 34.6805 98.4616 35.0711 98.0711C35.4616 97.6805 35.4616 97.0474 35.0711 96.6569L29.4142 91L35.0711 85.3431C35.4616 84.9526 35.4616 84.3195 35.0711 83.9289C34.6805 83.5384 34.0474 83.5384 33.6569 83.9289L27.2929 90.2929ZM28 92H48V90H28V92Z" fill="black"/>
<path opacity="0.5" d="M35.957 131.59C35.2324 131.973 34.3301 132.164 33.25 132.164C31.8555 132.164 30.7389 131.715 29.9004 130.817C29.0618 129.92 28.6426 128.742 28.6426 127.283C28.6426 125.715 29.1143 124.449 30.0576 123.482C31.001 122.516 32.1973 122.033 33.6465 122.033C34.5762 122.033 35.3464 122.168 35.957 122.437V123.66C35.2552 123.268 34.4805 123.072 33.6328 123.072C32.5072 123.072 31.5934 123.448 30.8916 124.2C30.1943 124.952 29.8457 125.957 29.8457 127.215C29.8457 128.409 30.1715 129.361 30.8232 130.072C31.4795 130.779 32.3385 131.132 33.4004 131.132C34.3848 131.132 35.237 130.913 35.957 130.476V131.59ZM43.6133 132H42.4922V127.967C42.4922 126.508 41.9499 125.779 40.8652 125.779C40.3184 125.779 39.8581 125.991 39.4844 126.415C39.1107 126.834 38.9238 127.374 38.9238 128.035V132H37.8027V121.637H38.9238V126.162H38.9512C39.4889 125.278 40.2546 124.836 41.248 124.836C42.8249 124.836 43.6133 125.786 43.6133 127.687V132ZM48.6582 132.164C47.6237 132.164 46.7965 131.838 46.1768 131.187C45.5615 130.53 45.2539 129.662 45.2539 128.582C45.2539 127.406 45.5752 126.488 46.2178 125.827C46.8604 125.166 47.7285 124.836 48.8223 124.836C49.8659 124.836 50.6794 125.157 51.2627 125.8C51.8506 126.442 52.1445 127.333 52.1445 128.473C52.1445 129.589 51.8278 130.485 51.1943 131.159C50.5654 131.829 49.7201 132.164 48.6582 132.164ZM48.7402 125.779C48.0202 125.779 47.4505 126.025 47.0312 126.518C46.612 127.005 46.4023 127.68 46.4023 128.541C46.4023 129.37 46.6143 130.024 47.0381 130.503C47.4619 130.981 48.0293 131.221 48.7402 131.221C49.4648 131.221 50.0208 130.986 50.4082 130.517C50.8001 130.047 50.9961 129.38 50.9961 128.514C50.9961 127.639 50.8001 126.964 50.4082 126.49C50.0208 126.016 49.4648 125.779 48.7402 125.779ZM56.8613 132.164C55.8268 132.164 54.9997 131.838 54.3799 131.187C53.7646 130.53 53.457 129.662 53.457 128.582C53.457 127.406 53.7783 126.488 54.4209 125.827C55.0635 125.166 55.9316 124.836 57.0254 124.836C58.069 124.836 58.8825 125.157 59.4658 125.8C60.0537 126.442 60.3477 127.333 60.3477 128.473C60.3477 129.589 60.0309 130.485 59.3975 131.159C58.7686 131.829 57.9232 132.164 56.8613 132.164ZM56.9434 125.779C56.2233 125.779 55.6536 126.025 55.2344 126.518C54.8151 127.005 54.6055 127.68 54.6055 128.541C54.6055 129.37 54.8174 130.024 55.2412 130.503C55.665 130.981 56.2324 131.221 56.9434 131.221C57.668 131.221 58.224 130.986 58.6113 130.517C59.0033 130.047 59.1992 129.38 59.1992 128.514C59.1992 127.639 59.0033 126.964 58.6113 126.49C58.224 126.016 57.668 125.779 56.9434 125.779ZM61.7148 131.747V130.544C62.3255 130.995 62.9977 131.221 63.7314 131.221C64.7158 131.221 65.208 130.893 65.208 130.236C65.208 130.049 65.1647 129.892 65.0781 129.765C64.9961 129.632 64.8822 129.516 64.7363 129.416C64.5951 129.316 64.4264 129.227 64.2305 129.149C64.0391 129.067 63.8317 128.983 63.6084 128.896C63.2985 128.773 63.0251 128.65 62.7881 128.527C62.5557 128.4 62.3597 128.258 62.2002 128.104C62.0452 127.944 61.9268 127.764 61.8447 127.563C61.7673 127.363 61.7285 127.128 61.7285 126.859C61.7285 126.531 61.8037 126.242 61.9541 125.991C62.1045 125.736 62.305 125.524 62.5557 125.355C62.8063 125.182 63.0911 125.052 63.4102 124.966C63.7337 124.879 64.0664 124.836 64.4082 124.836C65.0143 124.836 65.5566 124.941 66.0352 125.15V126.285C65.5202 125.948 64.9277 125.779 64.2578 125.779C64.0482 125.779 63.859 125.804 63.6904 125.854C63.5218 125.9 63.376 125.966 63.2529 126.053C63.1344 126.139 63.041 126.244 62.9727 126.367C62.9089 126.486 62.877 126.618 62.877 126.764C62.877 126.946 62.9089 127.099 62.9727 127.222C63.041 127.345 63.139 127.454 63.2666 127.55C63.3942 127.646 63.5492 127.732 63.7314 127.81C63.9137 127.887 64.1211 127.971 64.3535 128.062C64.6634 128.181 64.9414 128.304 65.1875 128.432C65.4336 128.555 65.6432 128.696 65.8164 128.855C65.9896 129.01 66.1217 129.19 66.2129 129.396C66.3086 129.601 66.3564 129.844 66.3564 130.127C66.3564 130.473 66.279 130.774 66.124 131.029C65.9736 131.285 65.7708 131.496 65.5156 131.665C65.2604 131.834 64.9665 131.959 64.6338 132.041C64.3011 132.123 63.9525 132.164 63.5879 132.164C62.8678 132.164 62.2435 132.025 61.7148 131.747ZM73.7119 128.78H68.7695C68.7878 129.56 68.9974 130.161 69.3984 130.585C69.7995 131.009 70.3509 131.221 71.0527 131.221C71.8411 131.221 72.5658 130.961 73.2266 130.441V131.494C72.6113 131.941 71.7979 132.164 70.7861 132.164C69.7972 132.164 69.0202 131.847 68.4551 131.214C67.89 130.576 67.6074 129.68 67.6074 128.527C67.6074 127.438 67.915 126.552 68.5303 125.868C69.1501 125.18 69.918 124.836 70.834 124.836C71.75 124.836 72.4587 125.132 72.96 125.725C73.4613 126.317 73.7119 127.14 73.7119 128.192V128.78ZM72.5635 127.83C72.5589 127.183 72.4017 126.679 72.0918 126.319C71.7865 125.959 71.3604 125.779 70.8135 125.779C70.2848 125.779 69.8359 125.968 69.4668 126.347C69.0977 126.725 68.8698 127.219 68.7832 127.83H72.5635ZM84.8271 125L81.6074 133.121C81.0332 134.57 80.2266 135.295 79.1875 135.295C78.8958 135.295 78.652 135.265 78.4561 135.206V134.201C78.6976 134.283 78.9186 134.324 79.1191 134.324C79.6842 134.324 80.1081 133.987 80.3906 133.312L80.9512 131.986L78.2168 125H79.4609L81.3545 130.387C81.3773 130.455 81.4251 130.633 81.498 130.92H81.5391C81.5618 130.811 81.6074 130.637 81.6758 130.4L83.665 125H84.8271ZM88.9629 132.164C87.9284 132.164 87.1012 131.838 86.4814 131.187C85.8662 130.53 85.5586 129.662 85.5586 128.582C85.5586 127.406 85.8799 126.488 86.5225 125.827C87.165 125.166 88.0332 124.836 89.127 124.836C90.1706 124.836 90.984 125.157 91.5674 125.8C92.1553 126.442 92.4492 127.333 92.4492 128.473C92.4492 129.589 92.1325 130.485 91.499 131.159C90.8701 131.829 90.0247 132.164 88.9629 132.164ZM89.0449 125.779C88.3249 125.779 87.7552 126.025 87.3359 126.518C86.9167 127.005 86.707 127.68 86.707 128.541C86.707 129.37 86.9189 130.024 87.3428 130.503C87.7666 130.981 88.334 131.221 89.0449 131.221C89.7695 131.221 90.3255 130.986 90.7129 130.517C91.1048 130.047 91.3008 129.38 91.3008 128.514C91.3008 127.639 91.1048 126.964 90.7129 126.49C90.3255 126.016 89.7695 125.779 89.0449 125.779ZM99.9004 132H98.7793V130.893H98.752C98.2871 131.74 97.5671 132.164 96.5918 132.164C94.9238 132.164 94.0898 131.171 94.0898 129.184V125H95.2041V129.006C95.2041 130.482 95.7692 131.221 96.8994 131.221C97.4463 131.221 97.8952 131.02 98.2461 130.619C98.6016 130.214 98.7793 129.685 98.7793 129.033V125H99.9004V132ZM107.16 130.988H107.133V132H106.012V121.637H107.133V126.23H107.16C107.712 125.301 108.518 124.836 109.58 124.836C110.478 124.836 111.18 125.15 111.686 125.779C112.196 126.404 112.451 127.242 112.451 128.295C112.451 129.466 112.166 130.405 111.597 131.111C111.027 131.813 110.248 132.164 109.259 132.164C108.334 132.164 107.634 131.772 107.16 130.988ZM107.133 128.165V129.143C107.133 129.721 107.32 130.214 107.693 130.619C108.072 131.02 108.55 131.221 109.129 131.221C109.808 131.221 110.339 130.961 110.722 130.441C111.109 129.922 111.303 129.2 111.303 128.274C111.303 127.495 111.123 126.884 110.763 126.442C110.403 126 109.915 125.779 109.3 125.779C108.648 125.779 108.124 126.007 107.728 126.463C107.331 126.914 107.133 127.481 107.133 128.165ZM119.868 128.78H114.926C114.944 129.56 115.154 130.161 115.555 130.585C115.956 131.009 116.507 131.221 117.209 131.221C117.997 131.221 118.722 130.961 119.383 130.441V131.494C118.768 131.941 117.954 132.164 116.942 132.164C115.953 132.164 115.176 131.847 114.611 131.214C114.046 130.576 113.764 129.68 113.764 128.527C113.764 127.438 114.071 126.552 114.687 125.868C115.306 125.18 116.074 124.836 116.99 124.836C117.906 124.836 118.615 125.132 119.116 125.725C119.618 126.317 119.868 127.14 119.868 128.192V128.78ZM118.72 127.83C118.715 127.183 118.558 126.679 118.248 126.319C117.943 125.959 117.517 125.779 116.97 125.779C116.441 125.779 115.992 125.968 115.623 126.347C115.254 126.725 115.026 127.219 114.939 127.83H118.72ZM124.817 131.932C124.553 132.077 124.204 132.15 123.771 132.15C122.546 132.15 121.933 131.467 121.933 130.1V125.957H120.729V125H121.933V123.291L123.054 122.929V125H124.817V125.957H123.054V129.901C123.054 130.371 123.133 130.706 123.293 130.906C123.452 131.107 123.717 131.207 124.086 131.207C124.368 131.207 124.612 131.13 124.817 130.975V131.932ZM129.562 131.932C129.297 132.077 128.949 132.15 128.516 132.15C127.29 132.15 126.677 131.467 126.677 130.1V125.957H125.474V125H126.677V123.291L127.798 122.929V125H129.562V125.957H127.798V129.901C127.798 130.371 127.878 130.706 128.037 130.906C128.197 131.107 128.461 131.207 128.83 131.207C129.113 131.207 129.356 131.13 129.562 130.975V131.932ZM136.685 128.78H131.742C131.76 129.56 131.97 130.161 132.371 130.585C132.772 131.009 133.324 131.221 134.025 131.221C134.814 131.221 135.538 130.961 136.199 130.441V131.494C135.584 131.941 134.771 132.164 133.759 132.164C132.77 132.164 131.993 131.847 131.428 131.214C130.863 130.576 130.58 129.68 130.58 128.527C130.58 127.438 130.888 126.552 131.503 125.868C132.123 125.18 132.891 124.836 133.807 124.836C134.723 124.836 135.431 125.132 135.933 125.725C136.434 126.317 136.685 127.14 136.685 128.192V128.78ZM135.536 127.83C135.532 127.183 135.374 126.679 135.064 126.319C134.759 125.959 134.333 125.779 133.786 125.779C133.257 125.779 132.809 125.968 132.439 126.347C132.07 126.725 131.842 127.219 131.756 127.83H135.536ZM142.037 126.135C141.841 125.984 141.559 125.909 141.189 125.909C140.711 125.909 140.31 126.135 139.986 126.586C139.667 127.037 139.508 127.652 139.508 128.432V132H138.387V125H139.508V126.442H139.535C139.695 125.95 139.938 125.567 140.267 125.294C140.595 125.016 140.962 124.877 141.367 124.877C141.659 124.877 141.882 124.909 142.037 124.973V126.135ZM155.914 125L153.815 132H152.653L151.211 126.989C151.156 126.798 151.12 126.581 151.102 126.34H151.074C151.061 126.504 151.013 126.716 150.931 126.976L149.365 132H148.244L146.125 125H147.301L148.75 130.264C148.796 130.423 148.827 130.633 148.846 130.893H148.9C148.914 130.692 148.955 130.478 149.023 130.25L150.637 125H151.662L153.111 130.277C153.157 130.446 153.191 130.656 153.214 130.906H153.269C153.278 130.729 153.316 130.519 153.385 130.277L154.807 125H155.914ZM162.224 132H161.103V130.906H161.075C160.588 131.745 159.87 132.164 158.922 132.164C158.225 132.164 157.678 131.979 157.281 131.61C156.889 131.241 156.693 130.751 156.693 130.141C156.693 128.833 157.464 128.072 159.004 127.857L161.103 127.563C161.103 126.374 160.622 125.779 159.66 125.779C158.817 125.779 158.056 126.066 157.377 126.641V125.492C158.065 125.055 158.858 124.836 159.756 124.836C161.401 124.836 162.224 125.706 162.224 127.447V132ZM161.103 128.459L159.414 128.691C158.895 128.764 158.503 128.894 158.238 129.081C157.974 129.263 157.842 129.589 157.842 130.059C157.842 130.4 157.963 130.681 158.204 130.899C158.45 131.114 158.776 131.221 159.182 131.221C159.738 131.221 160.196 131.027 160.556 130.64C160.92 130.248 161.103 129.753 161.103 129.156V128.459ZM169.907 125L166.688 133.121C166.113 134.57 165.307 135.295 164.268 135.295C163.976 135.295 163.732 135.265 163.536 135.206V134.201C163.778 134.283 163.999 134.324 164.199 134.324C164.764 134.324 165.188 133.987 165.471 133.312L166.031 131.986L163.297 125H164.541L166.435 130.387C166.457 130.455 166.505 130.633 166.578 130.92H166.619C166.642 130.811 166.688 130.637 166.756 130.4L168.745 125H169.907Z" fill="black"/>
<path d="M36.0566 182H35.2412V177.303C35.2412 176.932 35.264 176.478 35.3096 175.94H35.29C35.2119 176.256 35.1419 176.482 35.0801 176.619L32.6875 182H32.2871L29.8994 176.658C29.8311 176.502 29.7611 176.263 29.6895 175.94H29.6699C29.696 176.22 29.709 176.678 29.709 177.312V182H28.918V174.998H30.002L32.1504 179.881C32.3164 180.255 32.4238 180.535 32.4727 180.721H32.502C32.6419 180.337 32.7542 180.05 32.8389 179.861L35.0312 174.998H36.0566V182ZM39.8848 182.117C39.1458 182.117 38.555 181.884 38.1123 181.419C37.6729 180.95 37.4531 180.33 37.4531 179.559C37.4531 178.719 37.6826 178.063 38.1416 177.591C38.6006 177.119 39.2207 176.883 40.002 176.883C40.7474 176.883 41.3285 177.112 41.7451 177.571C42.165 178.03 42.375 178.667 42.375 179.48C42.375 180.278 42.1488 180.918 41.6963 181.399C41.2471 181.878 40.6432 182.117 39.8848 182.117ZM39.9434 177.557C39.429 177.557 39.0221 177.732 38.7227 178.084C38.4232 178.432 38.2734 178.914 38.2734 179.529C38.2734 180.122 38.4248 180.589 38.7275 180.931C39.0303 181.272 39.4355 181.443 39.9434 181.443C40.4609 181.443 40.8581 181.276 41.1348 180.94C41.4147 180.605 41.5547 180.128 41.5547 179.51C41.5547 178.885 41.4147 178.403 41.1348 178.064C40.8581 177.726 40.4609 177.557 39.9434 177.557ZM47.8047 182H47.0039V179.148C47.0039 178.087 46.6165 177.557 45.8418 177.557C45.4414 177.557 45.1094 177.708 44.8457 178.011C44.5853 178.31 44.4551 178.689 44.4551 179.148V182H43.6543V177H44.4551V177.83H44.4746C44.8522 177.199 45.3991 176.883 46.1152 176.883C46.6621 176.883 47.0804 177.06 47.3701 177.415C47.6598 177.767 47.8047 178.276 47.8047 178.943V182ZM51.6377 181.951C51.4489 182.055 51.1999 182.107 50.8906 182.107C50.015 182.107 49.5771 181.619 49.5771 180.643V177.684H48.7178V177H49.5771V175.779L50.3779 175.521V177H51.6377V177.684H50.3779V180.501C50.3779 180.836 50.4349 181.076 50.5488 181.219C50.6628 181.362 50.8516 181.434 51.1152 181.434C51.3171 181.434 51.4912 181.378 51.6377 181.268V181.951ZM56.8574 182H56.0566V179.119C56.0566 178.077 55.6693 177.557 54.8945 177.557C54.5039 177.557 54.1751 177.708 53.9082 178.011C53.6413 178.31 53.5078 178.696 53.5078 179.168V182H52.707V174.598H53.5078V177.83H53.5273C53.9115 177.199 54.4583 176.883 55.168 176.883C56.2943 176.883 56.8574 177.562 56.8574 178.919V182ZM60.9297 179.529H58.2637V178.899H60.9297V179.529ZM64.6943 181.951C64.5055 182.055 64.2565 182.107 63.9473 182.107C63.0716 182.107 62.6338 181.619 62.6338 180.643V177.684H61.7744V177H62.6338V175.779L63.4346 175.521V177H64.6943V177.684H63.4346V180.501C63.4346 180.836 63.4915 181.076 63.6055 181.219C63.7194 181.362 63.9082 181.434 64.1719 181.434C64.3737 181.434 64.5479 181.378 64.6943 181.268V181.951ZM67.8535 182.117C67.1146 182.117 66.5238 181.884 66.0811 181.419C65.6416 180.95 65.4219 180.33 65.4219 179.559C65.4219 178.719 65.6514 178.063 66.1104 177.591C66.5693 177.119 67.1895 176.883 67.9707 176.883C68.7161 176.883 69.2972 177.112 69.7139 177.571C70.1338 178.03 70.3438 178.667 70.3438 179.48C70.3438 180.278 70.1175 180.918 69.665 181.399C69.2158 181.878 68.612 182.117 67.8535 182.117ZM67.9121 177.557C67.3978 177.557 66.9909 177.732 66.6914 178.084C66.3919 178.432 66.2422 178.914 66.2422 179.529C66.2422 180.122 66.3936 180.589 66.6963 180.931C66.999 181.272 67.4043 181.443 67.9121 181.443C68.4297 181.443 68.8268 181.276 69.1035 180.94C69.3835 180.605 69.5234 180.128 69.5234 179.51C69.5234 178.885 69.3835 178.403 69.1035 178.064C68.8268 177.726 68.4297 177.557 67.9121 177.557ZM74.1816 179.529H71.5156V178.899H74.1816V179.529ZM82.873 182H82.0576V177.303C82.0576 176.932 82.0804 176.478 82.126 175.94H82.1064C82.0283 176.256 81.9583 176.482 81.8965 176.619L79.5039 182H79.1035L76.7158 176.658C76.6475 176.502 76.5775 176.263 76.5059 175.94H76.4863C76.5124 176.22 76.5254 176.678 76.5254 177.312V182H75.7344V174.998H76.8184L78.9668 179.881C79.1328 180.255 79.2402 180.535 79.2891 180.721H79.3184C79.4583 180.337 79.5706 180.05 79.6553 179.861L81.8477 174.998H82.873V182ZM86.7012 182.117C85.9622 182.117 85.3714 181.884 84.9287 181.419C84.4893 180.95 84.2695 180.33 84.2695 179.559C84.2695 178.719 84.499 178.063 84.958 177.591C85.417 177.119 86.0371 176.883 86.8184 176.883C87.5638 176.883 88.1449 177.112 88.5615 177.571C88.9814 178.03 89.1914 178.667 89.1914 179.48C89.1914 180.278 88.9652 180.918 88.5127 181.399C88.0635 181.878 87.4596 182.117 86.7012 182.117ZM86.7598 177.557C86.2454 177.557 85.8385 177.732 85.5391 178.084C85.2396 178.432 85.0898 178.914 85.0898 179.529C85.0898 180.122 85.2412 180.589 85.5439 180.931C85.8467 181.272 86.252 181.443 86.7598 181.443C87.2773 181.443 87.6745 181.276 87.9512 180.94C88.2311 180.605 88.3711 180.128 88.3711 179.51C88.3711 178.885 88.2311 178.403 87.9512 178.064C87.6745 177.726 87.2773 177.557 86.7598 177.557ZM94.6211 182H93.8203V179.148C93.8203 178.087 93.4329 177.557 92.6582 177.557C92.2578 177.557 91.9258 177.708 91.6621 178.011C91.4017 178.31 91.2715 178.689 91.2715 179.148V182H90.4707V177H91.2715V177.83H91.291C91.6686 177.199 92.2155 176.883 92.9316 176.883C93.4785 176.883 93.8968 177.06 94.1865 177.415C94.4762 177.767 94.6211 178.276 94.6211 178.943V182ZM98.4541 181.951C98.2653 182.055 98.0163 182.107 97.707 182.107C96.8314 182.107 96.3936 181.619 96.3936 180.643V177.684H95.5342V177H96.3936V175.779L97.1943 175.521V177H98.4541V177.684H97.1943V180.501C97.1943 180.836 97.2513 181.076 97.3652 181.219C97.4792 181.362 97.668 181.434 97.9316 181.434C98.1335 181.434 98.3076 181.378 98.4541 181.268V181.951ZM103.674 182H102.873V179.119C102.873 178.077 102.486 177.557 101.711 177.557C101.32 177.557 100.992 177.708 100.725 178.011C100.458 178.31 100.324 178.696 100.324 179.168V182H99.5234V174.598H100.324V177.83H100.344C100.728 177.199 101.275 176.883 101.984 176.883C103.111 176.883 103.674 177.562 103.674 178.919V182Z" fill="black"/>
<path d="M197.535 182H196.734V175.95C196.673 176.012 196.581 176.084 196.461 176.165C196.344 176.243 196.21 176.321 196.061 176.399C195.914 176.478 195.758 176.551 195.592 176.619C195.429 176.688 195.27 176.741 195.113 176.78V175.97C195.289 175.921 195.475 175.856 195.67 175.774C195.868 175.69 196.062 175.597 196.251 175.496C196.443 175.392 196.624 175.285 196.793 175.174C196.962 175.06 197.109 174.949 197.232 174.842H197.535V182ZM203.16 176.834C203.16 176.619 203.126 176.432 203.058 176.272C202.993 176.113 202.901 175.981 202.784 175.877C202.67 175.77 202.535 175.69 202.379 175.638C202.223 175.586 202.053 175.56 201.871 175.56C201.715 175.56 201.562 175.581 201.412 175.623C201.262 175.665 201.116 175.724 200.973 175.799C200.833 175.874 200.696 175.963 200.562 176.067C200.432 176.172 200.31 176.287 200.196 176.414V175.555C200.421 175.337 200.672 175.171 200.948 175.057C201.228 174.939 201.568 174.881 201.969 174.881C202.255 174.881 202.521 174.923 202.765 175.008C203.009 175.089 203.22 175.21 203.399 175.369C203.578 175.529 203.718 175.726 203.819 175.96C203.924 176.194 203.976 176.463 203.976 176.766C203.976 177.042 203.943 177.293 203.878 177.518C203.816 177.742 203.72 177.954 203.59 178.152C203.463 178.351 203.302 178.541 203.106 178.724C202.911 178.906 202.682 179.091 202.418 179.28C202.089 179.515 201.817 179.715 201.603 179.881C201.391 180.047 201.222 180.203 201.095 180.35C200.971 180.493 200.883 180.638 200.831 180.784C200.782 180.927 200.758 181.093 200.758 181.282H204.244V182H199.923V181.653C199.923 181.354 199.955 181.09 200.021 180.862C200.086 180.634 200.193 180.418 200.343 180.213C200.493 180.008 200.688 179.803 200.929 179.598C201.173 179.393 201.471 179.161 201.822 178.904C202.076 178.722 202.288 178.548 202.457 178.382C202.63 178.216 202.768 178.05 202.872 177.884C202.976 177.718 203.049 177.55 203.092 177.381C203.137 177.208 203.16 177.026 203.16 176.834ZM215.582 182H214.767V177.303C214.767 176.932 214.789 176.478 214.835 175.94H214.815C214.737 176.256 214.667 176.482 214.605 176.619L212.213 182H211.812L209.425 176.658C209.356 176.502 209.286 176.263 209.215 175.94H209.195C209.221 176.22 209.234 176.678 209.234 177.312V182H208.443V174.998H209.527L211.676 179.881C211.842 180.255 211.949 180.535 211.998 180.721H212.027C212.167 180.337 212.28 180.05 212.364 179.861L214.557 174.998H215.582V182ZM219.41 182.117C218.671 182.117 218.08 181.884 217.638 181.419C217.198 180.95 216.979 180.33 216.979 179.559C216.979 178.719 217.208 178.063 217.667 177.591C218.126 177.119 218.746 176.883 219.527 176.883C220.273 176.883 220.854 177.112 221.271 177.571C221.69 178.03 221.9 178.667 221.9 179.48C221.9 180.278 221.674 180.918 221.222 181.399C220.772 181.878 220.169 182.117 219.41 182.117ZM219.469 177.557C218.954 177.557 218.548 177.732 218.248 178.084C217.949 178.432 217.799 178.914 217.799 179.529C217.799 180.122 217.95 180.589 218.253 180.931C218.556 181.272 218.961 181.443 219.469 181.443C219.986 181.443 220.383 181.276 220.66 180.94C220.94 180.605 221.08 180.128 221.08 179.51C221.08 178.885 220.94 178.403 220.66 178.064C220.383 177.726 219.986 177.557 219.469 177.557ZM227.33 182H226.529V179.148C226.529 178.087 226.142 177.557 225.367 177.557C224.967 177.557 224.635 177.708 224.371 178.011C224.111 178.31 223.98 178.689 223.98 179.148V182H223.18V177H223.98V177.83H224C224.378 177.199 224.924 176.883 225.641 176.883C226.188 176.883 226.606 177.06 226.896 177.415C227.185 177.767 227.33 178.276 227.33 178.943V182ZM231.163 181.951C230.974 182.055 230.725 182.107 230.416 182.107C229.54 182.107 229.103 181.619 229.103 180.643V177.684H228.243V177H229.103V175.779L229.903 175.521V177H231.163V177.684H229.903V180.501C229.903 180.836 229.96 181.076 230.074 181.219C230.188 181.362 230.377 181.434 230.641 181.434C230.842 181.434 231.017 181.378 231.163 181.268V181.951ZM236.383 182H235.582V179.119C235.582 178.077 235.195 177.557 234.42 177.557C234.029 177.557 233.701 177.708 233.434 178.011C233.167 178.31 233.033 178.696 233.033 179.168V182H232.232V174.598H233.033V177.83H233.053C233.437 177.199 233.984 176.883 234.693 176.883C235.82 176.883 236.383 177.562 236.383 178.919V182ZM244.049 181.771C243.665 182.002 243.209 182.117 242.682 182.117C241.969 182.117 241.393 181.886 240.953 181.424C240.517 180.958 240.299 180.356 240.299 179.617C240.299 178.794 240.535 178.133 241.007 177.635C241.479 177.133 242.109 176.883 242.896 176.883C243.336 176.883 243.723 176.964 244.059 177.127V177.947C243.688 177.687 243.29 177.557 242.867 177.557C242.356 177.557 241.936 177.741 241.607 178.108C241.282 178.473 241.119 178.953 241.119 179.549C241.119 180.135 241.272 180.597 241.578 180.936C241.887 181.274 242.301 181.443 242.818 181.443C243.255 181.443 243.665 181.299 244.049 181.009V181.771ZM247.35 182.117C246.611 182.117 246.02 181.884 245.577 181.419C245.138 180.95 244.918 180.33 244.918 179.559C244.918 178.719 245.147 178.063 245.606 177.591C246.065 177.119 246.686 176.883 247.467 176.883C248.212 176.883 248.793 177.112 249.21 177.571C249.63 178.03 249.84 178.667 249.84 179.48C249.84 180.278 249.614 180.918 249.161 181.399C248.712 181.878 248.108 182.117 247.35 182.117ZM247.408 177.557C246.894 177.557 246.487 177.732 246.188 178.084C245.888 178.432 245.738 178.914 245.738 179.529C245.738 180.122 245.89 180.589 246.192 180.931C246.495 181.272 246.9 181.443 247.408 181.443C247.926 181.443 248.323 181.276 248.6 180.94C248.88 180.605 249.02 180.128 249.02 179.51C249.02 178.885 248.88 178.403 248.6 178.064C248.323 177.726 247.926 177.557 247.408 177.557ZM255.27 182H254.469V179.148C254.469 178.087 254.081 177.557 253.307 177.557C252.906 177.557 252.574 177.708 252.311 178.011C252.05 178.31 251.92 178.689 251.92 179.148V182H251.119V177H251.92V177.83H251.939C252.317 177.199 252.864 176.883 253.58 176.883C254.127 176.883 254.545 177.06 254.835 177.415C255.125 177.767 255.27 178.276 255.27 178.943V182ZM259.103 181.951C258.914 182.055 258.665 182.107 258.355 182.107C257.48 182.107 257.042 181.619 257.042 180.643V177.684H256.183V177H257.042V175.779L257.843 175.521V177H259.103V177.684H257.843V180.501C257.843 180.836 257.9 181.076 258.014 181.219C258.128 181.362 258.316 181.434 258.58 181.434C258.782 181.434 258.956 181.378 259.103 181.268V181.951ZM262.779 177.811C262.639 177.703 262.438 177.649 262.174 177.649C261.832 177.649 261.546 177.811 261.314 178.133C261.087 178.455 260.973 178.895 260.973 179.451V182H260.172V177H260.973V178.03H260.992C261.106 177.679 261.28 177.405 261.515 177.21C261.749 177.011 262.011 176.912 262.301 176.912C262.509 176.912 262.669 176.935 262.779 176.98V177.811ZM267.228 182H266.427V181.219H266.407C266.059 181.818 265.546 182.117 264.869 182.117C264.371 182.117 263.98 181.985 263.697 181.722C263.417 181.458 263.277 181.108 263.277 180.672C263.277 179.738 263.827 179.194 264.928 179.041L266.427 178.831C266.427 177.981 266.083 177.557 265.396 177.557C264.794 177.557 264.251 177.762 263.766 178.172V177.352C264.257 177.039 264.824 176.883 265.465 176.883C266.64 176.883 267.228 177.505 267.228 178.748V182ZM266.427 179.471L265.221 179.637C264.85 179.689 264.57 179.782 264.381 179.915C264.192 180.045 264.098 180.278 264.098 180.613C264.098 180.857 264.184 181.058 264.356 181.214C264.532 181.367 264.765 181.443 265.055 181.443C265.452 181.443 265.779 181.305 266.036 181.028C266.297 180.748 266.427 180.395 266.427 179.969V179.471ZM272.145 181.771C271.76 182.002 271.305 182.117 270.777 182.117C270.064 182.117 269.488 181.886 269.049 181.424C268.613 180.958 268.395 180.356 268.395 179.617C268.395 178.794 268.631 178.133 269.103 177.635C269.575 177.133 270.204 176.883 270.992 176.883C271.432 176.883 271.819 176.964 272.154 177.127V177.947C271.783 177.687 271.386 177.557 270.963 177.557C270.452 177.557 270.032 177.741 269.703 178.108C269.378 178.473 269.215 178.953 269.215 179.549C269.215 180.135 269.368 180.597 269.674 180.936C269.983 181.274 270.396 181.443 270.914 181.443C271.35 181.443 271.76 181.299 272.145 181.009V181.771ZM275.675 181.951C275.486 182.055 275.237 182.107 274.928 182.107C274.052 182.107 273.614 181.619 273.614 180.643V177.684H272.755V177H273.614V175.779L274.415 175.521V177H275.675V177.684H274.415V180.501C274.415 180.836 274.472 181.076 274.586 181.219C274.7 181.362 274.889 181.434 275.152 181.434C275.354 181.434 275.528 181.378 275.675 181.268V181.951Z" fill="black"/>
<rect x="28" y="189" width="160" height="79" rx="4" fill="white"/>
<g opacity="0.7">
<path d="M71.0078 219.961V221.021H70.5V220C69.8066 220 69.2435 219.86 68.8105 219.58V218.73C68.9993 218.896 69.2565 219.036 69.582 219.15C69.9108 219.261 70.2168 219.316 70.5 219.316V216.816C69.7839 216.471 69.32 216.154 69.1084 215.864C68.8968 215.571 68.791 215.226 68.791 214.829C68.791 214.357 68.9521 213.95 69.2744 213.608C69.5967 213.263 70.0052 213.057 70.5 212.988V212.109H71.0078V212.969C71.6458 212.988 72.0869 213.079 72.3311 213.242V214.072C71.999 213.812 71.5579 213.672 71.0078 213.652V216.23C71.6849 216.553 72.1471 216.865 72.3945 217.168C72.6452 217.467 72.7705 217.809 72.7705 218.193C72.7705 218.656 72.6143 219.045 72.3018 219.36C71.9925 219.673 71.5612 219.873 71.0078 219.961ZM70.5 215.957V213.682C70.2266 213.737 70.0101 213.859 69.8506 214.048C69.6911 214.233 69.6113 214.46 69.6113 214.727C69.6113 215.007 69.6764 215.236 69.8066 215.415C69.9368 215.594 70.168 215.775 70.5 215.957ZM71.0078 217.07V219.277C71.6361 219.141 71.9502 218.802 71.9502 218.262C71.9502 217.812 71.6361 217.415 71.0078 217.07ZM76.9258 220H76.125V213.95C76.0632 214.012 75.972 214.084 75.8516 214.165C75.7344 214.243 75.6009 214.321 75.4512 214.399C75.3047 214.478 75.1484 214.551 74.9824 214.619C74.8197 214.688 74.6602 214.741 74.5039 214.78V213.97C74.6797 213.921 74.8652 213.856 75.0605 213.774C75.2591 213.69 75.4528 213.597 75.6416 213.496C75.8337 213.392 76.0143 213.285 76.1836 213.174C76.3529 213.06 76.4993 212.949 76.623 212.842H76.9258V220ZM80.3242 218.887L79.543 221.289H78.9717L79.543 218.887H80.3242ZM85.9297 216.47C85.9297 217.056 85.876 217.575 85.7686 218.027C85.6644 218.48 85.5114 218.862 85.3096 219.175C85.111 219.484 84.8652 219.72 84.5723 219.883C84.2826 220.042 83.9521 220.122 83.5811 220.122C83.2295 220.122 82.9154 220.046 82.6387 219.893C82.3652 219.736 82.1341 219.51 81.9453 219.214C81.7565 218.918 81.6133 218.555 81.5156 218.125C81.418 217.692 81.3691 217.197 81.3691 216.641C81.3691 216.029 81.4196 215.488 81.5205 215.02C81.6247 214.551 81.776 214.159 81.9746 213.843C82.1732 213.524 82.4189 213.285 82.7119 213.125C83.0081 212.962 83.3467 212.881 83.7275 212.881C85.1956 212.881 85.9297 214.077 85.9297 216.47ZM85.1094 216.548C85.1094 214.556 84.6357 213.56 83.6885 213.56C82.6891 213.56 82.1895 214.574 82.1895 216.602C82.1895 218.493 82.6794 219.438 83.6592 219.438C84.626 219.438 85.1094 218.475 85.1094 216.548ZM91.3203 216.47C91.3203 217.056 91.2666 217.575 91.1592 218.027C91.055 218.48 90.902 218.862 90.7002 219.175C90.5016 219.484 90.2559 219.72 89.9629 219.883C89.6732 220.042 89.3428 220.122 88.9717 220.122C88.6201 220.122 88.306 220.046 88.0293 219.893C87.7559 219.736 87.5247 219.51 87.3359 219.214C87.1471 218.918 87.0039 218.555 86.9062 218.125C86.8086 217.692 86.7598 217.197 86.7598 216.641C86.7598 216.029 86.8102 215.488 86.9111 215.02C87.0153 214.551 87.1667 214.159 87.3652 213.843C87.5638 213.524 87.8096 213.285 88.1025 213.125C88.3988 212.962 88.7373 212.881 89.1182 212.881C90.5863 212.881 91.3203 214.077 91.3203 216.47ZM90.5 216.548C90.5 214.556 90.0264 213.56 89.0791 213.56C88.0798 213.56 87.5801 214.574 87.5801 216.602C87.5801 218.493 88.07 219.438 89.0498 219.438C90.0166 219.438 90.5 218.475 90.5 216.548ZM96.7109 216.47C96.7109 217.056 96.6572 217.575 96.5498 218.027C96.4456 218.48 96.2926 218.862 96.0908 219.175C95.8923 219.484 95.6465 219.72 95.3535 219.883C95.0638 220.042 94.7334 220.122 94.3623 220.122C94.0107 220.122 93.6966 220.046 93.4199 219.893C93.1465 219.736 92.9154 219.51 92.7266 219.214C92.5378 218.918 92.3945 218.555 92.2969 218.125C92.1992 217.692 92.1504 217.197 92.1504 216.641C92.1504 216.029 92.2008 215.488 92.3018 215.02C92.4059 214.551 92.5573 214.159 92.7559 213.843C92.9544 213.524 93.2002 213.285 93.4932 213.125C93.7894 212.962 94.1279 212.881 94.5088 212.881C95.9769 212.881 96.7109 214.077 96.7109 216.47ZM95.8906 216.548C95.8906 214.556 95.417 213.56 94.4697 213.56C93.4704 213.56 92.9707 214.574 92.9707 216.602C92.9707 218.493 93.4606 219.438 94.4404 219.438C95.4072 219.438 95.8906 218.475 95.8906 216.548ZM101.091 212.998L97.7314 221.162H96.9844L100.334 212.998H101.091Z" fill="#1AD079"/>
<path d="M102.648 219.277H102.629V222.3H101.828V215H102.629V215.879H102.648C103.042 215.215 103.618 214.883 104.377 214.883C105.021 214.883 105.524 215.107 105.886 215.557C106.247 216.003 106.428 216.602 106.428 217.354C106.428 218.19 106.224 218.861 105.817 219.365C105.41 219.867 104.854 220.117 104.147 220.117C103.5 220.117 103 219.837 102.648 219.277ZM102.629 217.261V217.959C102.629 218.372 102.762 218.724 103.029 219.014C103.299 219.3 103.641 219.443 104.055 219.443C104.54 219.443 104.919 219.258 105.192 218.887C105.469 218.516 105.607 218 105.607 217.339C105.607 216.782 105.479 216.346 105.222 216.03C104.965 215.715 104.616 215.557 104.177 215.557C103.711 215.557 103.337 215.719 103.054 216.045C102.771 216.367 102.629 216.772 102.629 217.261ZM111.726 217.7H108.195C108.208 218.257 108.358 218.687 108.645 218.989C108.931 219.292 109.325 219.443 109.826 219.443C110.389 219.443 110.907 219.258 111.379 218.887V219.639C110.939 219.958 110.358 220.117 109.636 220.117C108.929 220.117 108.374 219.891 107.971 219.438C107.567 218.983 107.365 218.343 107.365 217.52C107.365 216.742 107.585 216.108 108.024 215.62C108.467 215.129 109.016 214.883 109.67 214.883C110.324 214.883 110.83 215.094 111.188 215.518C111.547 215.941 111.726 216.528 111.726 217.28V217.7ZM110.905 217.021C110.902 216.559 110.79 216.2 110.568 215.942C110.35 215.685 110.046 215.557 109.655 215.557C109.278 215.557 108.957 215.692 108.693 215.962C108.43 216.232 108.267 216.585 108.205 217.021H110.905ZM115.549 215.811C115.409 215.703 115.207 215.649 114.943 215.649C114.602 215.649 114.315 215.811 114.084 216.133C113.856 216.455 113.742 216.895 113.742 217.451V220H112.941V215H113.742V216.03H113.762C113.876 215.679 114.05 215.405 114.284 215.21C114.519 215.011 114.781 214.912 115.07 214.912C115.279 214.912 115.438 214.935 115.549 214.98V215.811ZM126.262 220H125.461V217.129C125.461 216.576 125.375 216.175 125.202 215.928C125.033 215.68 124.746 215.557 124.343 215.557C124.001 215.557 123.71 215.713 123.469 216.025C123.231 216.338 123.112 216.712 123.112 217.148V220H122.312V217.031C122.312 216.048 121.932 215.557 121.174 215.557C120.822 215.557 120.533 215.705 120.305 216.001C120.077 216.294 119.963 216.676 119.963 217.148V220H119.162V215H119.963V215.791H119.982C120.337 215.186 120.855 214.883 121.535 214.883C121.877 214.883 122.175 214.979 122.429 215.171C122.683 215.36 122.857 215.609 122.951 215.918C123.322 215.228 123.876 214.883 124.611 214.883C125.712 214.883 126.262 215.562 126.262 216.919V220ZM129.865 220.117C129.126 220.117 128.535 219.884 128.093 219.419C127.653 218.95 127.434 218.33 127.434 217.559C127.434 216.719 127.663 216.063 128.122 215.591C128.581 215.119 129.201 214.883 129.982 214.883C130.728 214.883 131.309 215.112 131.726 215.571C132.146 216.03 132.355 216.667 132.355 217.48C132.355 218.278 132.129 218.918 131.677 219.399C131.228 219.878 130.624 220.117 129.865 220.117ZM129.924 215.557C129.41 215.557 129.003 215.732 128.703 216.084C128.404 216.432 128.254 216.914 128.254 217.529C128.254 218.122 128.405 218.589 128.708 218.931C129.011 219.272 129.416 219.443 129.924 219.443C130.441 219.443 130.839 219.276 131.115 218.94C131.395 218.605 131.535 218.128 131.535 217.51C131.535 216.885 131.395 216.403 131.115 216.064C130.839 215.726 130.441 215.557 129.924 215.557ZM137.785 220H136.984V217.148C136.984 216.087 136.597 215.557 135.822 215.557C135.422 215.557 135.09 215.708 134.826 216.011C134.566 216.31 134.436 216.689 134.436 217.148V220H133.635V215H134.436V215.83H134.455C134.833 215.199 135.38 214.883 136.096 214.883C136.643 214.883 137.061 215.06 137.351 215.415C137.64 215.767 137.785 216.276 137.785 216.943V220ZM141.618 219.951C141.429 220.055 141.18 220.107 140.871 220.107C139.995 220.107 139.558 219.619 139.558 218.643V215.684H138.698V215H139.558V213.779L140.358 213.521V215H141.618V215.684H140.358V218.501C140.358 218.836 140.415 219.076 140.529 219.219C140.643 219.362 140.832 219.434 141.096 219.434C141.298 219.434 141.472 219.378 141.618 219.268V219.951ZM146.838 220H146.037V217.119C146.037 216.077 145.65 215.557 144.875 215.557C144.484 215.557 144.156 215.708 143.889 216.011C143.622 216.31 143.488 216.696 143.488 217.168V220H142.688V212.598H143.488V215.83H143.508C143.892 215.199 144.439 214.883 145.148 214.883C146.275 214.883 146.838 215.562 146.838 216.919V220Z" fill="black"/>
</g>
<rect x="194.5" y="189.5" width="159" height="78" rx="3.5" fill="white"/>
<g opacity="0.7">
<path d="M237.008 219.961V221.021H236.5V220C235.807 220 235.243 219.86 234.811 219.58V218.73C234.999 218.896 235.257 219.036 235.582 219.15C235.911 219.261 236.217 219.316 236.5 219.316V216.816C235.784 216.471 235.32 216.154 235.108 215.864C234.897 215.571 234.791 215.226 234.791 214.829C234.791 214.357 234.952 213.95 235.274 213.608C235.597 213.263 236.005 213.057 236.5 212.988V212.109H237.008V212.969C237.646 212.988 238.087 213.079 238.331 213.242V214.072C237.999 213.812 237.558 213.672 237.008 213.652V216.23C237.685 216.553 238.147 216.865 238.395 217.168C238.645 217.467 238.771 217.809 238.771 218.193C238.771 218.656 238.614 219.045 238.302 219.36C237.993 219.673 237.561 219.873 237.008 219.961ZM236.5 215.957V213.682C236.227 213.737 236.01 213.859 235.851 214.048C235.691 214.233 235.611 214.46 235.611 214.727C235.611 215.007 235.676 215.236 235.807 215.415C235.937 215.594 236.168 215.775 236.5 215.957ZM237.008 217.07V219.277C237.636 219.141 237.95 218.802 237.95 218.262C237.95 217.812 237.636 217.415 237.008 217.07ZM242.926 220H242.125V213.95C242.063 214.012 241.972 214.084 241.852 214.165C241.734 214.243 241.601 214.321 241.451 214.399C241.305 214.478 241.148 214.551 240.982 214.619C240.82 214.688 240.66 214.741 240.504 214.78V213.97C240.68 213.921 240.865 213.856 241.061 213.774C241.259 213.69 241.453 213.597 241.642 213.496C241.834 213.392 242.014 213.285 242.184 213.174C242.353 213.06 242.499 212.949 242.623 212.842H242.926V220ZM246.324 218.887L245.543 221.289H244.972L245.543 218.887H246.324ZM251.93 216.47C251.93 217.056 251.876 217.575 251.769 218.027C251.664 218.48 251.511 218.862 251.31 219.175C251.111 219.484 250.865 219.72 250.572 219.883C250.283 220.042 249.952 220.122 249.581 220.122C249.229 220.122 248.915 220.046 248.639 219.893C248.365 219.736 248.134 219.51 247.945 219.214C247.757 218.918 247.613 218.555 247.516 218.125C247.418 217.692 247.369 217.197 247.369 216.641C247.369 216.029 247.42 215.488 247.521 215.02C247.625 214.551 247.776 214.159 247.975 213.843C248.173 213.524 248.419 213.285 248.712 213.125C249.008 212.962 249.347 212.881 249.728 212.881C251.196 212.881 251.93 214.077 251.93 216.47ZM251.109 216.548C251.109 214.556 250.636 213.56 249.688 213.56C248.689 213.56 248.189 214.574 248.189 216.602C248.189 218.493 248.679 219.438 249.659 219.438C250.626 219.438 251.109 218.475 251.109 216.548ZM257.32 216.47C257.32 217.056 257.267 217.575 257.159 218.027C257.055 218.48 256.902 218.862 256.7 219.175C256.502 219.484 256.256 219.72 255.963 219.883C255.673 220.042 255.343 220.122 254.972 220.122C254.62 220.122 254.306 220.046 254.029 219.893C253.756 219.736 253.525 219.51 253.336 219.214C253.147 218.918 253.004 218.555 252.906 218.125C252.809 217.692 252.76 217.197 252.76 216.641C252.76 216.029 252.81 215.488 252.911 215.02C253.015 214.551 253.167 214.159 253.365 213.843C253.564 213.524 253.81 213.285 254.103 213.125C254.399 212.962 254.737 212.881 255.118 212.881C256.586 212.881 257.32 214.077 257.32 216.47ZM256.5 216.548C256.5 214.556 256.026 213.56 255.079 213.56C254.08 213.56 253.58 214.574 253.58 216.602C253.58 218.493 254.07 219.438 255.05 219.438C256.017 219.438 256.5 218.475 256.5 216.548ZM262.711 216.47C262.711 217.056 262.657 217.575 262.55 218.027C262.446 218.48 262.293 218.862 262.091 219.175C261.892 219.484 261.646 219.72 261.354 219.883C261.064 220.042 260.733 220.122 260.362 220.122C260.011 220.122 259.697 220.046 259.42 219.893C259.146 219.736 258.915 219.51 258.727 219.214C258.538 218.918 258.395 218.555 258.297 218.125C258.199 217.692 258.15 217.197 258.15 216.641C258.15 216.029 258.201 215.488 258.302 215.02C258.406 214.551 258.557 214.159 258.756 213.843C258.954 213.524 259.2 213.285 259.493 213.125C259.789 212.962 260.128 212.881 260.509 212.881C261.977 212.881 262.711 214.077 262.711 216.47ZM261.891 216.548C261.891 214.556 261.417 213.56 260.47 213.56C259.47 213.56 258.971 214.574 258.971 216.602C258.971 218.493 259.461 219.438 260.44 219.438C261.407 219.438 261.891 218.475 261.891 216.548ZM267.091 212.998L263.731 221.162H262.984L266.334 212.998H267.091Z" fill="#1AD079"/>
<path d="M268.648 219.277H268.629V222.3H267.828V215H268.629V215.879H268.648C269.042 215.215 269.618 214.883 270.377 214.883C271.021 214.883 271.524 215.107 271.886 215.557C272.247 216.003 272.428 216.602 272.428 217.354C272.428 218.19 272.224 218.861 271.817 219.365C271.41 219.867 270.854 220.117 270.147 220.117C269.5 220.117 269 219.837 268.648 219.277ZM268.629 217.261V217.959C268.629 218.372 268.762 218.724 269.029 219.014C269.299 219.3 269.641 219.443 270.055 219.443C270.54 219.443 270.919 219.258 271.192 218.887C271.469 218.516 271.607 218 271.607 217.339C271.607 216.782 271.479 216.346 271.222 216.03C270.965 215.715 270.616 215.557 270.177 215.557C269.711 215.557 269.337 215.719 269.054 216.045C268.771 216.367 268.629 216.772 268.629 217.261ZM277.726 217.7H274.195C274.208 218.257 274.358 218.687 274.645 218.989C274.931 219.292 275.325 219.443 275.826 219.443C276.389 219.443 276.907 219.258 277.379 218.887V219.639C276.939 219.958 276.358 220.117 275.636 220.117C274.929 220.117 274.374 219.891 273.971 219.438C273.567 218.983 273.365 218.343 273.365 217.52C273.365 216.742 273.585 216.108 274.024 215.62C274.467 215.129 275.016 214.883 275.67 214.883C276.324 214.883 276.83 215.094 277.188 215.518C277.547 215.941 277.726 216.528 277.726 217.28V217.7ZM276.905 217.021C276.902 216.559 276.79 216.2 276.568 215.942C276.35 215.685 276.046 215.557 275.655 215.557C275.278 215.557 274.957 215.692 274.693 215.962C274.43 216.232 274.267 216.585 274.205 217.021H276.905ZM281.549 215.811C281.409 215.703 281.207 215.649 280.943 215.649C280.602 215.649 280.315 215.811 280.084 216.133C279.856 216.455 279.742 216.895 279.742 217.451V220H278.941V215H279.742V216.03H279.762C279.876 215.679 280.05 215.405 280.284 215.21C280.519 215.011 280.781 214.912 281.07 214.912C281.279 214.912 281.438 214.935 281.549 214.98V215.811ZM292.262 220H291.461V217.129C291.461 216.576 291.375 216.175 291.202 215.928C291.033 215.68 290.746 215.557 290.343 215.557C290.001 215.557 289.71 215.713 289.469 216.025C289.231 216.338 289.112 216.712 289.112 217.148V220H288.312V217.031C288.312 216.048 287.932 215.557 287.174 215.557C286.822 215.557 286.533 215.705 286.305 216.001C286.077 216.294 285.963 216.676 285.963 217.148V220H285.162V215H285.963V215.791H285.982C286.337 215.186 286.855 214.883 287.535 214.883C287.877 214.883 288.175 214.979 288.429 215.171C288.683 215.36 288.857 215.609 288.951 215.918C289.322 215.228 289.876 214.883 290.611 214.883C291.712 214.883 292.262 215.562 292.262 216.919V220ZM295.865 220.117C295.126 220.117 294.535 219.884 294.093 219.419C293.653 218.95 293.434 218.33 293.434 217.559C293.434 216.719 293.663 216.063 294.122 215.591C294.581 215.119 295.201 214.883 295.982 214.883C296.728 214.883 297.309 215.112 297.726 215.571C298.146 216.03 298.355 216.667 298.355 217.48C298.355 218.278 298.129 218.918 297.677 219.399C297.228 219.878 296.624 220.117 295.865 220.117ZM295.924 215.557C295.41 215.557 295.003 215.732 294.703 216.084C294.404 216.432 294.254 216.914 294.254 217.529C294.254 218.122 294.405 218.589 294.708 218.931C295.011 219.272 295.416 219.443 295.924 219.443C296.441 219.443 296.839 219.276 297.115 218.94C297.395 218.605 297.535 218.128 297.535 217.51C297.535 216.885 297.395 216.403 297.115 216.064C296.839 215.726 296.441 215.557 295.924 215.557ZM303.785 220H302.984V217.148C302.984 216.087 302.597 215.557 301.822 215.557C301.422 215.557 301.09 215.708 300.826 216.011C300.566 216.31 300.436 216.689 300.436 217.148V220H299.635V215H300.436V215.83H300.455C300.833 215.199 301.38 214.883 302.096 214.883C302.643 214.883 303.061 215.06 303.351 215.415C303.64 215.767 303.785 216.276 303.785 216.943V220ZM307.618 219.951C307.429 220.055 307.18 220.107 306.871 220.107C305.995 220.107 305.558 219.619 305.558 218.643V215.684H304.698V215H305.558V213.779L306.358 213.521V215H307.618V215.684H306.358V218.501C306.358 218.836 306.415 219.076 306.529 219.219C306.643 219.362 306.832 219.434 307.096 219.434C307.298 219.434 307.472 219.378 307.618 219.268V219.951ZM312.838 220H312.037V217.119C312.037 216.077 311.65 215.557 310.875 215.557C310.484 215.557 310.156 215.708 309.889 216.011C309.622 216.31 309.488 216.696 309.488 217.168V220H308.688V212.598H309.488V215.83H309.508C309.892 215.199 310.439 214.883 311.148 214.883C312.275 214.883 312.838 215.562 312.838 216.919V220Z" fill="black"/>
</g>
<rect x="194.5" y="189.5" width="159" height="78" rx="3.5" stroke="#1AD079"/>
<path d="M277.146 258.967C276.744 256.696 278.949 254.84 281.118 255.623L332.257 274.069C334.636 274.927 334.951 278.162 332.783 279.464L310.233 292.997C309.962 293.16 309.718 293.364 309.511 293.603L291.837 313.969C290.182 315.876 287.056 315.011 286.617 312.526L277.146 258.967Z" fill="#1AD079"/>
</svg>
